<svg id="wave" style="transform:rotate(0deg); transition: 0.3s" viewBox="0 0 1440 160" version="1.1" xmlns="http://www.w3.org/2000/svg"><defs><linearGradient id="sw-gradient-0" x1="0" x2="0" y1="1" y2="0"><stop stop-color="rgba(255, 255, 255, 1)" offset="0%"></stop><stop stop-color="rgba(255, 255, 255, 1)" offset="100%"></stop></linearGradient></defs><path style="transform:translate(0, 0px); opacity:1" fill="url(#sw-gradient-0)" d="M0,16L80,32C160,48,320,80,480,85.3C640,91,800,69,960,56C1120,43,1280,37,1440,53.3C1600,69,1760,107,1920,114.7C2080,123,2240,101,2400,80C2560,59,2720,37,2880,37.3C3040,37,3200,59,3360,56C3520,53,3680,27,3840,37.3C4000,48,4160,96,4320,104C4480,112,4640,80,4800,80C4960,80,5120,112,5280,120C5440,128,5600,112,5760,112C5920,112,6080,128,6240,117.3C6400,107,6560,69,6720,64C6880,59,7040,85,7200,82.7C7360,80,7520,48,7680,34.7C7840,21,8000,27,8160,48C8320,69,8480,107,8640,109.3C8800,112,8960,80,9120,69.3C9280,59,9440,69,9600,69.3C9760,69,9920,59,10080,66.7C10240,75,10400,101,10560,96C10720,91,10880,53,11040,45.3C11200,37,11360,59,11440,69.3L11520,80L11520,160L11440,160C11360,160,11200,160,11040,160C10880,160,10720,160,10560,160C10400,160,10240,160,10080,160C9920,160,9760,160,9600,160C9440,160,9280,160,9120,160C8960,160,8800,160,8640,160C8480,160,8320,160,8160,160C8000,160,7840,160,7680,160C7520,160,7360,160,7200,160C7040,160,6880,160,6720,160C6560,160,6400,160,6240,160C6080,160,5920,160,5760,160C5600,160,5440,160,5280,160C5120,160,4960,160,4800,160C4640,160,4480,160,4320,160C4160,160,4000,160,3840,160C3680,160,3520,160,3360,160C3200,160,3040,160,2880,160C2720,160,2560,160,2400,160C2240,160,2080,160,1920,160C1760,160,1600,160,1440,160C1280,160,1120,160,960,160C800,160,640,160,480,160C320,160,160,160,80,160L0,160Z"></path></svg>