<?xml version="1.0" standalone="no"?>
<svg xmlns:xlink="http://www.w3.org/1999/xlink" id="wave" style="transform:rotate(0deg); transition: 0.3s" viewBox="0 0 1440 160" version="1.1" xmlns="http://www.w3.org/2000/svg"><defs><linearGradient id="sw-gradient-0" x1="0" x2="0" y1="1" y2="0"><stop stop-color="rgba(255, 255, 255, 1)" offset="0%"/><stop stop-color="rgba(255, 255, 255, 1)" offset="100%"/></linearGradient></defs><path style="transform:translate(0, 0px); opacity:1" fill="url(#sw-gradient-0)" d="M0,96L60,80C120,64,240,32,360,16C480,0,600,0,720,21.3C840,43,960,85,1080,101.3C1200,117,1320,107,1440,106.7C1560,107,1680,117,1800,125.3C1920,133,2040,139,2160,120C2280,101,2400,59,2520,34.7C2640,11,2760,5,2880,24C3000,43,3120,85,3240,106.7C3360,128,3480,128,3600,106.7C3720,85,3840,43,3960,37.3C4080,32,4200,64,4320,85.3C4440,107,4560,117,4680,114.7C4800,112,4920,96,5040,98.7C5160,101,5280,123,5400,122.7C5520,123,5640,101,5760,96C5880,91,6000,101,6120,98.7C6240,96,6360,80,6480,77.3C6600,75,6720,85,6840,90.7C6960,96,7080,96,7200,98.7C7320,101,7440,107,7560,90.7C7680,75,7800,37,7920,26.7C8040,16,8160,32,8280,56C8400,80,8520,112,8580,128L8640,144L8640,160L8580,160C8520,160,8400,160,8280,160C8160,160,8040,160,7920,160C7800,160,7680,160,7560,160C7440,160,7320,160,7200,160C7080,160,6960,160,6840,160C6720,160,6600,160,6480,160C6360,160,6240,160,6120,160C6000,160,5880,160,5760,160C5640,160,5520,160,5400,160C5280,160,5160,160,5040,160C4920,160,4800,160,4680,160C4560,160,4440,160,4320,160C4200,160,4080,160,3960,160C3840,160,3720,160,3600,160C3480,160,3360,160,3240,160C3120,160,3000,160,2880,160C2760,160,2640,160,2520,160C2400,160,2280,160,2160,160C2040,160,1920,160,1800,160C1680,160,1560,160,1440,160C1320,160,1200,160,1080,160C960,160,840,160,720,160C600,160,480,160,360,160C240,160,120,160,60,160L0,160Z"/></svg>